<svg width="512" height="512" viewBox="0 0 512 512" fill="none" xmlns="http://www.w3.org/2000/svg" role="img" aria-label="TechNexis logo">
  <defs>
    <linearGradient id="g1" x1="80" y1="80" x2="440" y2="440" gradientUnits="userSpaceOnUse">
      <stop stop-color="#7C3AED"/>
      <stop offset="1" stop-color="#22C55E"/>
    </linearGradient>
    <linearGradient id="g2" x1="128" y1="128" x2="384" y2="384" gradientUnits="userSpaceOnUse">
      <stop stop-color="#EDE9FE"/>
      <stop offset="1" stop-color="#C7F9D4"/>
    </linearGradient>
    <filter id="shadow" x="-20%" y="-20%" width="140%" height="140%">
      <feDropShadow dx="0" dy="16" stdDeviation="20" flood-color="#000000" flood-opacity=".35"/>
    </filter>
  </defs>
  <rect x="32" y="32" width="448" height="448" rx="112" fill="#0B1020"/>
  <rect x="32" y="32" width="448" height="448" rx="112" fill="url(#g1)" opacity=".12"/>
  <path d="M168 140H344C354.493 140 363 148.507 363 159V190C363 200.493 354.493 209 344 209H274V352C274 362.493 265.493 371 255 371H237C226.507 371 218 362.493 218 352V209H168C157.507 209 149 200.493 149 190V159C149 148.507 157.507 140 168 140Z" fill="url(#g2)" filter="url(#shadow)"/>
  <circle cx="304" cy="306" r="30" fill="url(#g1)"/>
  <path d="M130 363C170 329 205 306 255 306C308 306 336 326 386 363" stroke="url(#g2)" stroke-width="18" stroke-linecap="round"/>
</svg>
